<?xml version="1.0" encoding="UTF-8"?><svg id="canvas_3" width="560" height="376" style="width: 560px; height: 376px;" version="1.1" xmlns="http://www.w3.org/2000/svg" viewBox="0 0 560 376"><path stroke="none" opacity="1" fill-opacity="1" d="M 0,0 l 560,0 l 0,376 l-560 0 z" stroke-opacity="1" transform="matrix(1,0,0,1,0,0)" width="560" height="376" stroke-width="1" fill="#fff"></path><defs id="defs_1"></defs><g stroke="none" fill="none" opacity="1" fill-opacity="1" stroke-opacity="1" transform="matrix(1,0,0,1,0,0)"><g stroke="none" fill="none" opacity="1" fill-opacity="1" stroke-opacity="1" transform="matrix(1,0,0,1,0,0)"></g><g stroke="none" fill="none" opacity="1" fill-opacity="1" stroke-opacity="1" transform="matrix(1,0,0,1,0,0)"></g><g stroke="none" fill="none" opacity="1" fill-opacity="1" stroke-opacity="1" transform="matrix(1,0,0,1,0,0)"><text paint-order="stroke" style="stroke-linecap:butt; stroke-linejoin:miter;" alignment-baseline="auto" text-anchor="left" opacity="1" fill-opacity="1" stroke-opacity="1" transform="matrix(1,0,0,1,0,0)" x="24" y="42" stroke-width="1" font-size="18" font-family="PingFang SC" font-style="normal" font-weight="normal" font-variant="normal" fill="black" font="normal normal normal 18px PingFang SC">雷达图</text></g><g stroke="none" fill="none" opacity="1" fill-opacity="1" stroke-opacity="1" transform="matrix(1,0,0,1,0,0)"><text paint-order="stroke" style="stroke-linecap:butt; stroke-linejoin:miter;" alignment-baseline="auto" text-anchor="left" opacity="1" fill-opacity="1" stroke-opacity="1" transform="matrix(1,0,0,1,0,0)" x="24" y="64.5" stroke-width="1" font-size="12" font-family="PingFang SC" font-style="normal" font-weight="normal" font-variant="normal" fill="grey" font="normal normal normal 12px PingFang SC">一个简单的雷达图</text></g><g stroke="none" fill="none" opacity="1" fill-opacity="1" stroke-opacity="1" transform="matrix(1,0,0,1,0,0)"><path stroke="none" d="M 0,89 l 560,0 l 0,287 l-560 0 z" opacity="1" fill-opacity="0" stroke-opacity="1" transform="matrix(1,0,0,1,0,0)" width="560" height="287" stroke-width="1" fill="#ffffff"></path><g stroke="none" fill="none" opacity="1" fill-opacity="1" stroke-opacity="1" transform="matrix(1,0,0,1,0,0)"></g><g stroke="none" fill="none" opacity="1" fill-opacity="1" stroke-opacity="1" transform="matrix(1,0,0,1,0,0)"><g stroke="none" fill="none" opacity="1" fill-opacity="1" stroke-opacity="1" transform="matrix(1,0,0,1,0,0)"><g stroke="none" fill="none" opacity="1" fill-opacity="1" stroke-opacity="1" transform="matrix(1,0,0,1,0,0)"><path fill="none" opacity="1" fill-opacity="1" stroke-opacity="1" transform="matrix(1,0,0,1,0,0)" d="M 321.75 226.5L 321.75 195.125L 321.75 163.75L 321.75 132.375L 321.75 101" stroke-width="1" stroke="#E9E9E9" stroke-dasharray="0,0" style="[object Object]"></path><path fill="none" opacity="1" fill-opacity="1" stroke-opacity="1" transform="matrix(1,0,0,1,0,0)" d="M 321.75 226.5L 351.5893981987604 216.80459180148603L 381.4287963975209 207.10918360297205L 411.2681945962813 197.41377540445808L 441.1075927950418 187.7183672059441" stroke-width="1" stroke="#E9E9E9" stroke-dasharray="0,0" style="[object Object]"></path><path fill="none" opacity="1" fill-opacity="1" stroke-opacity="1" transform="matrix(1,0,0,1,0,0)" d="M 321.75 226.5L 340.19176229067637 251.88290819851397L 358.6335245813527 277.26581639702795L 377.07528687202904 302.6487245955419L 395.51704916270535 328.0316327940559" stroke-width="1" stroke="#E9E9E9" stroke-dasharray="0,0" style="[object Object]"></path><path fill="none" opacity="1" fill-opacity="1" stroke-opacity="1" transform="matrix(1,0,0,1,0,0)" d="M 321.75 226.5L 303.30823770932363 251.88290819851397L 284.86647541864727 277.26581639702795L 266.42471312797096 302.6487245955419L 247.9829508372946 328.0316327940559" stroke-width="1" stroke="#E9E9E9" stroke-dasharray="0,0" style="[object Object]"></path><path fill="none" opacity="1" fill-opacity="1" stroke-opacity="1" transform="matrix(1,0,0,1,0,0)" d="M 321.75 226.5L 291.9106018012396 216.80459180148603L 262.0712036024791 207.10918360297205L 232.23180540371868 197.41377540445808L 202.3924072049582 187.7183672059441" stroke-width="1" stroke="#E9E9E9" stroke-dasharray="0,0" style="[object Object]"></path><path fill="none" opacity="1" fill-opacity="1" stroke-opacity="1" transform="matrix(1,0,0,1,0,0)" d="M 321.75 226.5L 321.75 195.125L 321.75 163.75L 321.75 132.375L 321.75 101" stroke-width="1" stroke="#E9E9E9" stroke-dasharray="0,0" style="[object Object]"></path></g><g stroke="none" fill="none" opacity="1" fill-opacity="1" stroke-opacity="1" transform="matrix(1,0,0,1,0,0)"><text paint-order="stroke" style="stroke-linecap:butt; stroke-linejoin:miter;" alignment-baseline="auto" text-anchor="middle" opacity="0.65" fill-opacity="1" stroke-opacity="1" transform="matrix(1,0,0,1,0,0)" x="321.75" y="85" stroke-width="1" font-size="12" font-family="&quot;-apple-system&quot;, BlinkMacSystemFont, &quot;Segoe UI&quot;, Roboto,&quot;Helvetica Neue&quot;, Helvetica, &quot;PingFang SC&quot;, &quot;Hiragino Sans GB&quot;, &quot;Microsoft YaHei&quot;,SimSun, &quot;sans-serif&quot;" font-style="normal" font-weight="normal" font-variant="normal" fill="#000">防御</text><text paint-order="stroke" style="stroke-linecap:butt; stroke-linejoin:miter;" alignment-baseline="auto" text-anchor="left" opacity="0.65" fill-opacity="1" stroke-opacity="1" transform="matrix(1,0,0,1,0,0)" x="456.32449705576425" y="182.77409529594496" stroke-width="1" font-size="12" font-family="&quot;-apple-system&quot;, BlinkMacSystemFont, &quot;Segoe UI&quot;, Roboto,&quot;Helvetica Neue&quot;, Helvetica, &quot;PingFang SC&quot;, &quot;Hiragino Sans GB&quot;, &quot;Microsoft YaHei&quot;,SimSun, &quot;sans-serif&quot;" font-style="normal" font-weight="normal" font-variant="normal" fill="#000">速度</text><text paint-order="stroke" style="stroke-linecap:butt; stroke-linejoin:miter;" alignment-baseline="auto" text-anchor="left" opacity="0.65" fill-opacity="1" stroke-opacity="1" transform="matrix(1,0,0,1,0,0)" x="404.92161319938486" y="340.9759047040551" stroke-width="1" font-size="12" font-family="&quot;-apple-system&quot;, BlinkMacSystemFont, &quot;Segoe UI&quot;, Roboto,&quot;Helvetica Neue&quot;, Helvetica, &quot;PingFang SC&quot;, &quot;Hiragino Sans GB&quot;, &quot;Microsoft YaHei&quot;,SimSun, &quot;sans-serif&quot;" font-style="normal" font-weight="normal" font-variant="normal" fill="#000">攻击</text><text paint-order="stroke" style="stroke-linecap:butt; stroke-linejoin:miter;" alignment-baseline="auto" text-anchor="end" opacity="0.65" fill-opacity="1" stroke-opacity="1" transform="matrix(1,0,0,1,0,0)" x="238.57838680061502" y="340.9759047040551" stroke-width="1" font-size="12" font-family="&quot;-apple-system&quot;, BlinkMacSystemFont, &quot;Segoe UI&quot;, Roboto,&quot;Helvetica Neue&quot;, Helvetica, &quot;PingFang SC&quot;, &quot;Hiragino Sans GB&quot;, &quot;Microsoft YaHei&quot;,SimSun, &quot;sans-serif&quot;" font-style="normal" font-weight="normal" font-variant="normal" fill="#000">躲闪</text><text paint-order="stroke" style="stroke-linecap:butt; stroke-linejoin:miter;" alignment-baseline="auto" text-anchor="end" opacity="0.65" fill-opacity="1" stroke-opacity="1" transform="matrix(1,0,0,1,0,0)" x="187.17550294423575" y="182.77409529594496" stroke-width="1" font-size="12" font-family="&quot;-apple-system&quot;, BlinkMacSystemFont, &quot;Segoe UI&quot;, Roboto,&quot;Helvetica Neue&quot;, Helvetica, &quot;PingFang SC&quot;, &quot;Hiragino Sans GB&quot;, &quot;Microsoft YaHei&quot;,SimSun, &quot;sans-serif&quot;" font-style="normal" font-weight="normal" font-variant="normal" fill="#000">穿透</text><g stroke="none" fill="none" opacity="1" fill-opacity="1" stroke-opacity="1" transform="matrix(1,0,0,1,0,0)"></g></g></g><g stroke="none" fill="none" opacity="1" fill-opacity="1" stroke-opacity="1" transform="matrix(1,0,0,1,0,0)"><g stroke="none" fill="none" opacity="1" fill-opacity="1" stroke-opacity="1" transform="matrix(1,0,0,1,0,0)"><path fill="none" opacity="1" fill-opacity="1" stroke-opacity="1" transform="matrix(1,0,0,1,0,0)" d="M 321.75 226.5L 321.75 226.5L 321.75 226.5L 321.75 226.5L 321.75 226.5L 321.75 226.5" stroke-width="1" stroke="#E9E9E9" stroke-dasharray="0,0"></path><path fill="none" opacity="1" fill-opacity="1" stroke-opacity="1" transform="matrix(1,0,0,1,0,0)" d="M 321.75 195.125L 351.5893981987604 216.80459180148603L 340.19176229067637 251.88290819851397L 303.30823770932363 251.88290819851397L 291.9106018012396 216.80459180148603L 321.75 195.125" stroke-width="1" stroke="#E9E9E9" stroke-dasharray="0,0"></path><path fill="none" opacity="1" fill-opacity="1" stroke-opacity="1" transform="matrix(1,0,0,1,0,0)" d="M 321.75 163.75L 381.4287963975209 207.10918360297205L 358.6335245813527 277.26581639702795L 284.86647541864727 277.26581639702795L 262.0712036024791 207.10918360297205L 321.75 163.75" stroke-width="1" stroke="#E9E9E9" stroke-dasharray="0,0"></path><path fill="none" opacity="1" fill-opacity="1" stroke-opacity="1" transform="matrix(1,0,0,1,0,0)" d="M 321.75 132.375L 411.2681945962813 197.41377540445808L 377.07528687202904 302.6487245955419L 266.42471312797096 302.6487245955419L 232.23180540371868 197.41377540445808L 321.75 132.375" stroke-width="1" stroke="#E9E9E9" stroke-dasharray="0,0"></path><path fill="none" opacity="1" fill-opacity="1" stroke-opacity="1" transform="matrix(1,0,0,1,0,0)" d="M 321.75 101L 441.1075927950418 187.7183672059441L 395.51704916270535 328.0316327940559L 247.9829508372946 328.0316327940559L 202.3924072049582 187.7183672059441L 321.75 101" stroke-width="1" stroke="#E9E9E9" stroke-dasharray="0,0"></path></g><path fill="none" opacity="1" fill-opacity="1" stroke-opacity="1" transform="matrix(1,0,0,1,0,0)" d="M 321.75 226.5L 321.75 101" stroke-width="1" stroke="#BFBFBF"></path><path fill="none" opacity="1" fill-opacity="1" stroke-opacity="1" transform="matrix(1,0,0,1,0,0)" d="M 321.75 226.5L 317.75 226.5M 321.75 195.125L 317.75 195.125M 321.75 163.75L 317.75 163.75M 321.75 132.375L 317.75 132.375M 321.75 101L 317.75 101" stroke-width="1" stroke="#BFBFBF"></path><g stroke="none" fill="none" opacity="1" fill-opacity="1" stroke-opacity="1" transform="matrix(1,0,0,1,0,0)"><text paint-order="stroke" style="stroke-linecap:butt; stroke-linejoin:miter;" alignment-baseline="auto" text-anchor="end" opacity="1" fill-opacity="1" stroke-opacity="1" transform="matrix(1,0,0,1,0,0)" x="309.75" y="231.5" stroke-width="1" font-size="12" font-family="&quot;-apple-system&quot;, BlinkMacSystemFont, &quot;Segoe UI&quot;, Roboto,&quot;Helvetica Neue&quot;, Helvetica, &quot;PingFang SC&quot;, &quot;Hiragino Sans GB&quot;, &quot;Microsoft YaHei&quot;,SimSun, &quot;sans-serif&quot;" font-style="normal" font-weight="normal" font-variant="normal" fill="#545454">0</text><text paint-order="stroke" style="stroke-linecap:butt; stroke-linejoin:miter;" alignment-baseline="auto" text-anchor="end" opacity="1" fill-opacity="1" stroke-opacity="1" transform="matrix(1,0,0,1,0,0)" x="309.75" y="200.125" stroke-width="1" font-size="12" font-family="&quot;-apple-system&quot;, BlinkMacSystemFont, &quot;Segoe UI&quot;, Roboto,&quot;Helvetica Neue&quot;, Helvetica, &quot;PingFang SC&quot;, &quot;Hiragino Sans GB&quot;, &quot;Microsoft YaHei&quot;,SimSun, &quot;sans-serif&quot;" font-style="normal" font-weight="normal" font-variant="normal" fill="#545454">250</text><text paint-order="stroke" style="stroke-linecap:butt; stroke-linejoin:miter;" alignment-baseline="auto" text-anchor="end" opacity="1" fill-opacity="1" stroke-opacity="1" transform="matrix(1,0,0,1,0,0)" x="309.75" y="168.75" stroke-width="1" font-size="12" font-family="&quot;-apple-system&quot;, BlinkMacSystemFont, &quot;Segoe UI&quot;, Roboto,&quot;Helvetica Neue&quot;, Helvetica, &quot;PingFang SC&quot;, &quot;Hiragino Sans GB&quot;, &quot;Microsoft YaHei&quot;,SimSun, &quot;sans-serif&quot;" font-style="normal" font-weight="normal" font-variant="normal" fill="#545454">500</text><text paint-order="stroke" style="stroke-linecap:butt; stroke-linejoin:miter;" alignment-baseline="auto" text-anchor="end" opacity="1" fill-opacity="1" stroke-opacity="1" transform="matrix(1,0,0,1,0,0)" x="309.75" y="137.375" stroke-width="1" font-size="12" font-family="&quot;-apple-system&quot;, BlinkMacSystemFont, &quot;Segoe UI&quot;, Roboto,&quot;Helvetica Neue&quot;, Helvetica, &quot;PingFang SC&quot;, &quot;Hiragino Sans GB&quot;, &quot;Microsoft YaHei&quot;,SimSun, &quot;sans-serif&quot;" font-style="normal" font-weight="normal" font-variant="normal" fill="#545454">750</text><text paint-order="stroke" style="stroke-linecap:butt; stroke-linejoin:miter;" alignment-baseline="auto" text-anchor="end" opacity="1" fill-opacity="1" stroke-opacity="1" transform="matrix(1,0,0,1,0,0)" x="309.75" y="106" stroke-width="1" font-size="12" font-family="&quot;-apple-system&quot;, BlinkMacSystemFont, &quot;Segoe UI&quot;, Roboto,&quot;Helvetica Neue&quot;, Helvetica, &quot;PingFang SC&quot;, &quot;Hiragino Sans GB&quot;, &quot;Microsoft YaHei&quot;,SimSun, &quot;sans-serif&quot;" font-style="normal" font-weight="normal" font-variant="normal" fill="#545454">1000</text><g stroke="none" fill="none" opacity="1" fill-opacity="1" stroke-opacity="1" transform="matrix(1,0,0,1,0,0)"></g></g></g></g></g><g stroke="none" fill="none" opacity="1" fill-opacity="1" stroke-opacity="1" transform="matrix(1,0,0,1,0,0)"><path stroke="none" d="M 107.5,101 l 428.5,0 l 0,251 l-428.5 0 z" opacity="1" fill-opacity="0" stroke-opacity="1" transform="matrix(1,0,0,1,0,0)" width="428.5" height="251" stroke-width="1" fill="#ffffff"></path><g stroke="none" fill="none" opacity="1" fill-opacity="1" stroke-opacity="1" transform="matrix(1,0,0,1,0,0)"><g stroke="none" fill="none" opacity="1" fill-opacity="1" stroke-opacity="1" transform="matrix(1,0,0,1,0,0)"><path stroke="none" opacity="0.25" fill-opacity="0.6" stroke-opacity="1" transform="matrix(1,0,0,1,0,0)" d="M 321.75 156.09449999999998L 417.2360742360334 195.47469376475527L 388.14034424643484 317.8784695146503L 303.30823770932363 251.88290819851397L 274.00696288198327 210.98734688237764L 321.75 156.09449999999998L 321.75 226.5L 321.75 226.5L 321.75 226.5L 321.75 226.5L 321.75 226.5L 321.75 226.5Z" stroke-width="0" fill="#5B8FF9"></path><path stroke="none" opacity="0.25" fill-opacity="0.6" stroke-opacity="1" transform="matrix(1,0,0,1,0,0)" d="M 321.75 185.9635L 423.2039538757855 193.5356121250525L 388.14034424643484 317.8784695146503L 314.37329508372943 236.6531632794056L 256.103323962727 205.17010196326925L 321.75 185.9635L 321.75 226.5L 321.75 226.5L 321.75 226.5L 321.75 226.5L 321.75 226.5L 321.75 226.5Z" stroke-width="0" fill="#5AD8A6"></path></g></g><g stroke="none" fill="none" opacity="1" fill-opacity="1" stroke-opacity="1" transform="matrix(1,0,0,1,0,0)"><g stroke="none" fill="none" opacity="1" fill-opacity="1" stroke-opacity="1" transform="matrix(1,0,0,1,0,0)"><path fill="none" opacity="1" fill-opacity="1" stroke-opacity="1" transform="matrix(1,0,0,1,0,0)" d="M 321.75 156.09449999999998L 417.2360742360334 195.47469376475527L 388.14034424643484 317.8784695146503L 303.30823770932363 251.88290819851397L 274.00696288198327 210.98734688237764Z" stroke-width="2" stroke="#5B8FF9"></path><path fill="none" opacity="1" fill-opacity="1" stroke-opacity="1" transform="matrix(1,0,0,1,0,0)" d="M 321.75 185.9635L 423.2039538757855 193.5356121250525L 388.14034424643484 317.8784695146503L 314.37329508372943 236.6531632794056L 256.103323962727 205.17010196326925Z" stroke-width="2" stroke="#5AD8A6"></path></g></g></g><g stroke="none" fill="none" opacity="1" fill-opacity="1" stroke-opacity="1" transform="matrix(1,0,0,1,0,0)"><g stroke="none" fill="none" opacity="1" fill-opacity="1" stroke-opacity="1" transform="matrix(1,0,0,1,0,0)"></g><g stroke="none" fill="none" opacity="1" fill-opacity="1" stroke-opacity="1" transform="matrix(1,0,0,1,0,0)"></g><g stroke="none" fill="none" opacity="1" fill-opacity="1" stroke-opacity="1" transform="matrix(1,0,0,1,0,0)"></g><g stroke="none" fill="none" opacity="1" fill-opacity="1" stroke-opacity="1" transform="matrix(1,0,0,1,24,89)"><g stroke="none" fill="none" opacity="1" fill-opacity="1" stroke-opacity="1" transform="matrix(1,0,0,1,0,0)"><g stroke="none" fill="none" opacity="1" fill-opacity="1" stroke-opacity="1" transform="matrix(1,0,0,1,0,0)"><path stroke="none" d="M -0.5 11L 10.5 11L 10.5 19L -0.5 19Z" opacity="1" fill-opacity="0.6" stroke-opacity="1" transform="matrix(1,0,0,1,0,0)" stroke-width="0" fill="#5B8FF9"></path><text paint-order="stroke" style="stroke-linecap:butt; stroke-linejoin:miter;" alignment-baseline="auto" text-anchor="left" opacity="1" fill-opacity="1" stroke-opacity="1" transform="matrix(1,0,0,1,0,0)" x="18" y="20.5" stroke-width="1" font-size="12" font-family="&quot;-apple-system&quot;, BlinkMacSystemFont, &quot;Segoe UI&quot;, Roboto,&quot;Helvetica Neue&quot;, Helvetica, &quot;PingFang SC&quot;, &quot;Hiragino Sans GB&quot;, &quot;Microsoft YaHei&quot;,SimSun, &quot;sans-serif&quot;" font-style="normal" font-weight="normal" font-variant="normal" fill="#8C8C8C" font="normal normal normal 12px &quot;-apple-system&quot;, BlinkMacSystemFont, &quot;Segoe UI&quot;, Roboto,&quot;Helvetica Neue&quot;, Helvetica, &quot;PingFang SC&quot;, &quot;Hiragino Sans GB&quot;, &quot;Microsoft YaHei&quot;,SimSun, &quot;sans-serif&quot;">马可波罗</text><path stroke="none" d="M 0,8.5 l 66.5,0 l 0,13 l-66.5 0 z" opacity="1" fill-opacity="0" stroke-opacity="1" transform="matrix(1,0,0,1,0,0)" width="66.5" height="13" stroke-width="1" fill="#fff"></path></g><g stroke="none" fill="none" opacity="1" fill-opacity="1" stroke-opacity="1" transform="matrix(1,0,0,1,0,0)"><path stroke="none" d="M -0.5 33L 10.5 33L 10.5 41L -0.5 41Z" opacity="1" fill-opacity="0.6" stroke-opacity="1" transform="matrix(1,0,0,1,0,0)" stroke-width="0" fill="#5AD8A6"></path><text paint-order="stroke" style="stroke-linecap:butt; stroke-linejoin:miter;" alignment-baseline="auto" text-anchor="left" opacity="1" fill-opacity="1" stroke-opacity="1" transform="matrix(1,0,0,1,0,0)" x="18" y="42.5" stroke-width="1" font-size="12" font-family="&quot;-apple-system&quot;, BlinkMacSystemFont, &quot;Segoe UI&quot;, Roboto,&quot;Helvetica Neue&quot;, Helvetica, &quot;PingFang SC&quot;, &quot;Hiragino Sans GB&quot;, &quot;Microsoft YaHei&quot;,SimSun, &quot;sans-serif&quot;" font-style="normal" font-weight="normal" font-variant="normal" fill="#8C8C8C" font="normal normal normal 12px &quot;-apple-system&quot;, BlinkMacSystemFont, &quot;Segoe UI&quot;, Roboto,&quot;Helvetica Neue&quot;, Helvetica, &quot;PingFang SC&quot;, &quot;Hiragino Sans GB&quot;, &quot;Microsoft YaHei&quot;,SimSun, &quot;sans-serif&quot;">孙尚香</text><path stroke="none" d="M 0,30.5 l 54.5,0 l 0,13 l-54.5 0 z" opacity="1" fill-opacity="0" stroke-opacity="1" transform="matrix(1,0,0,1,0,0)" width="54.5" height="13" stroke-width="1" fill="#fff"></path></g></g></g></g></g></svg>